<?xml version="1.0" encoding="UTF-8" standalone="no"?>
<!-- Generator: Adobe Illustrator 13.0.0, SVG Export Plug-In . SVG Version: 6.00 Build 14948)  -->

<svg
   xmlns:dc="http://purl.org/dc/elements/1.1/"
   xmlns:cc="http://creativecommons.org/ns#"
   xmlns:rdf="http://www.w3.org/1999/02/22-rdf-syntax-ns#"
   xmlns:svg="http://www.w3.org/2000/svg"
   xmlns="http://www.w3.org/2000/svg"
   xmlns:sodipodi="http://sodipodi.sourceforge.net/DTD/sodipodi-0.dtd"
   xmlns:inkscape="http://www.inkscape.org/namespaces/inkscape"
   version="1.1"
   id="Layer_1"
   x="0px"
   y="0px"
   width="220px"
   height="162px"
   viewBox="0 0 220 162"
   enable-background="new 0 0 220 162"
   xml:space="preserve"
   sodipodi:docname="dreamcast_logo.svg"
   inkscape:version="0.92.3 (2405546, 2018-03-11)"><metadata
   id="metadata3823"><rdf:RDF><cc:Work
       rdf:about=""><dc:format>image/svg+xml</dc:format><dc:type
         rdf:resource="http://purl.org/dc/dcmitype/StillImage" /></cc:Work></rdf:RDF></metadata><defs
   id="defs3821" /><sodipodi:namedview
   pagecolor="#ffffff"
   bordercolor="#666666"
   borderopacity="1"
   objecttolerance="10"
   gridtolerance="10"
   guidetolerance="10"
   inkscape:pageopacity="0"
   inkscape:pageshadow="2"
   inkscape:window-width="1920"
   inkscape:window-height="1000"
   id="namedview3819"
   showgrid="false"
   inkscape:zoom="5.0123457"
   inkscape:cx="134.56427"
   inkscape:cy="84.185789"
   inkscape:window-x="0"
   inkscape:window-y="0"
   inkscape:window-maximized="1"
   inkscape:current-layer="Layer_1" />
<polygon
   fill="#231F20"
   points="211.623,155.648 210.531,155.648 210.531,155.271 213.133,155.271 213.133,155.648 212.05,155.648   212.05,158.587 211.623,158.587 211.623,155.648 "
   id="polygon3796" />
<polygon
   fill="#231F20"
   points="214.898,158.587 213.993,155.894 213.993,158.587 213.557,158.587 213.557,155.271 214.161,155.271   215.116,158.091 216.071,155.271 216.676,155.271 216.676,158.587 216.24,158.587 216.24,155.894 215.335,158.587 214.898,158.587   "
   id="polygon3798" />
<path
   fill="#231F20"
   d="M4.406,127.169c0-1.152-0.219-2.644-0.728-3.271c3.333,0,10.534,0.022,13.621,0.022  c7.102,0,17.816,3.942,17.816,17.23c0,9.863-7.563,17.211-17.816,17.211c-2.249,0-10.836-0.026-13.882-0.026  c0.625-1.153,0.989-2.717,0.989-3.952V127.169L4.406,127.169z M9.513,154.987c3.278,0.424,6.304,0.555,9.042,0.163  c2.649-0.378,11.55-2.294,11.495-14.113c-0.053-11.2-6.969-13.759-12.299-14.073c-2.781-0.164-5.466-0.06-8.238,0.421V154.987  L9.513,154.987z"
   id="path3800" />
<path
   fill="#231F20"
   d="M38.041,134.481l5.103-0.797c0,1.044,0,4.108,0,4.493c1.309-3.234,5.381-5.833,11.169-3.581l-1.357,3.552  c-5.297-2.513-9.812-0.308-9.812,5.574v12.138c0,0.577,0.125,1.744,0.471,2.492h-5.301c0.536-0.66,0.783-1.915,0.783-2.492v-17.509  C39.097,137.081,38.839,135.115,38.041,134.481L38.041,134.481z"
   id="path3802" />
<path
   fill="#231F20"
   d="M199.368,136.916c0,0.331,0,14.448,0,15.504c0,4.865,3.354,6.167,5.84,6.167  c1.052,0.052,2.539-0.194,3.579-0.425l0.641-3.004c-1.213,0.462-2.622,0.572-3.466,0.572c-1.558,0-2.685-1.034-2.685-2.651  c0-1.452-0.037-15.682,0-16.138h-0.017c0.208,0,3.439-0.011,3.765,0c1.061,0.038,1.875,0.103,2.575,0.384l0.004-2.829  c0,0-6.208-0.008-6.328-0.008l0.025-7.256l-4.704,1.3c0.65,0.606,0.86,2.382,0.86,3.552c0,0-0.003,2.168-0.003,2.43  c-0.212,0-2.598,0.011-2.994,0.011v2.391C196.878,136.915,199.368,136.916,199.368,136.916L199.368,136.916z"
   id="path3804" />
<path
   fill="#231F20"
   d="M179.042,153.31c2.022,1.444,5.194,2.726,7.521,2.726c3.228,0,5.538-1.57,5.538-4.525  c0-5.456-12.439-4.553-12.439-11.475c0-4.68,4.185-6.44,8.174-6.44c1.281,0,4.207,0.278,6.069,0.998l-0.016,3.196  c-1.652-1.412-4.175-1.754-5.837-1.754c-2.64,0-4.62,1.309-4.62,3.877c0,3.771,12.428,3.553,12.428,11.291  c0,5.004-4.337,7.338-9.108,7.338c-2.326,0-4.749-0.413-6.768-0.99L179.042,153.31L179.042,153.31z"
   id="path3806" />
<path
   fill="#231F20"
   d="M103.961,136.965c0-0.283,0.011-2.818,0.011-3.143l-5.166,0.799c0.622,0.652,1.1,2.688,1.1,4.142v16.929  c0,0.577-0.247,1.978-0.783,2.638h5.633c-0.536-0.66-0.783-2.061-0.783-2.638v-12.738c0-4.66,2.883-6.291,5.752-6.291  c2.597,0,4.944,1.124,4.944,6.291v12.738c0,0.577-0.248,1.978-0.783,2.638h5.463c-0.536-0.66-0.783-2.061-0.783-2.638v-12.738  c0-5.167,3.193-6.291,5.793-6.291c2.596,0,5.313,1.63,5.313,6.291v12.738c0,0.577-0.247,1.978-0.783,2.638h5.259  c-0.536-0.66-0.783-2.061-0.783-2.638v-15.156c0-2.583-2.634-6.721-8.79-6.721c-3.58,0-5.647,1.592-7.217,2.963  c-1.335-1.558-3.509-3.02-7.001-3.02C106.952,133.758,104.943,135.752,103.961,136.965L103.961,136.965z"
   id="path3808" />
<path
   fill="#231F20"
   d="M91.779,144.906c-0.737,0.693-2.281,1.232-3.875,1.441c-4.187,0.549-7.814,1.245-7.814,5.324  c0,2.419,2.636,4.324,4.726,4.324c5.534,0,6.964-3.992,6.964-7.138V144.906L91.779,144.906z M78.707,134.924  c2.112-0.847,5.521-1.235,7.657-1.235c5.458,0,9.084,2.727,9.084,9.058v10.501c0,1.946,0.029,3.787,0.723,5.081h-4.388l-0.157-2.762  c-1.662,2.144-3.646,3.104-7.016,3.104c-6.647,0-8.099-4.542-8.099-6.726c0-7.789,7.414-7.881,10.633-8.339  c1.781-0.253,4.074-0.756,4.418-2.426c0.569-2.763-1.407-4.834-5.442-4.834c-2.961,0-5.387,0.9-7.413,2.113V134.924L78.707,134.924z   M173.01,144.906c-0.737,0.693-2.282,1.232-3.876,1.441c-4.186,0.549-7.814,1.245-7.814,5.324c0,2.419,2.636,4.324,4.726,4.324  c5.534,0,6.964-3.992,6.964-7.138V144.906L173.01,144.906z M159.938,134.924c2.112-0.847,5.521-1.235,7.657-1.235  c5.458,0,9.084,2.727,9.084,9.058v10.501c0,1.946-0.424,3.748,0.722,5.081h-4.388l-0.157-2.762  c-1.662,2.144-3.646,3.104-7.015,3.104c-6.646,0-8.099-4.542-8.099-6.726c0-7.789,7.414-7.881,10.633-8.339  c1.782-0.253,4.075-0.756,4.418-2.426c0.568-2.763-1.407-4.834-5.442-4.834c-2.961,0-5.387,0.9-7.413,2.113V134.924L159.938,134.924  z"
   id="path3810" />
<path
   fill="#231F20"
   d="M155.268,138.145c-1.647-0.961-4.245-1.724-6.057-1.724c-6.361,0-9.277,3.913-9.277,9.548  c0,5.583,2.849,9.857,9.072,9.857c2.133,0,5.037-0.957,7.29-2.342l-0.917,4.107c-2.293,0.682-4.226,1.007-6.785,1.007  c-8.745,0-12.843-6.201-12.843-12.654c0-7.134,5.498-12.149,12.938-12.149c3.252,0,5.627,0.798,6.586,1.07L155.268,138.145  L155.268,138.145z"
   id="path3812" />
<path
   fill="#231F20"
   d="M57.38,146.268c0.003-0.59,0.081-1.152,0.148-1.696h16.919c0-5.817-2.908-10.807-9.8-10.807  c-7.153,0-11.399,5.594-11.399,12.729c0,6.453,4.728,12.217,12.825,12.217c2.56,0,4.701-0.631,7.011-1.439l0.813-4.125  c-1.976,1.627-5.171,2.59-8.053,2.59C60.661,155.736,57.356,151.985,57.38,146.268L57.38,146.268z M58.063,141.992  c0.549-2.831,3.167-5.713,6.301-5.713c4.789,0,6.175,3.737,6.175,5.714C70.538,141.992,58.063,142,58.063,141.992L58.063,141.992z"
   id="path3814" />
<path
   fill="#CF3311"
   d="M125.279,4.448c4.702,0.706,9.504,2.348,12.008,3.114c5.045,1.542,13.235,6.335,16.127,8.634  c1.368,1.087,4.245,3.934,5.359,5.367c1.085,1.396,3.158,4.42,4.481,6.283c2.105,3.075,4.584,7.655,6.687,11.87  c2.349,4.709,2.51,6.073,3.22,10.01l1.553,6.94c0.146,1.2,0.267,5.602-2.317,6.219c-2.583,0.617-4.971-0.575-6.097-2.317  c-1.558-2.411-1.343-5.833-3.105-9.75c-1.374-3.166-1.975-7.767-4.169-11.076l-1.721-2.91c-3.045-4.688-6.219-8.409-8.112-10.836  c-1.667-2.039-4.78-4.811-7.731-6.783c-2.729-1.655-7.141-3.542-10.323-4.514c-1.014-0.33-5.354-1.606-8.051-1.965  c-3.66-0.411-6.068-0.99-9.546-1.235c-4.294-0.303-6.354-0.685-11.924-0.034c-2.11,0.572-5.453,0.799-8.462,1.95  c-2.43,0.991-5.81,2.592-9.121,4.537c-3.563,1.954-8.972,5.95-12.559,9.362c-3.615,3.863-5.423,5.936-7.916,10.833  c-1.104,2.423-3.239,6.171-4.1,8.817c-0.588,2.686-1.71,7.696-1.521,10.129c0.085,4.359-0.296,5.257,0.031,8.82  c0.012,3.208,1.065,5.432,1.503,8.056c0.375,1.813,2.114,8.086,3.19,9.542c4.891,10.538,11.456,15.102,18.772,18.394  c2.062,1.05,8.515,2.777,10.382,3.272c3.183,0.574,7.372,0.957,11.404,1.035c4.242,0.083,10.089-0.492,13.637-1.798  c3.84-1.412,8.28-3.419,8.229-3.363c1.782-0.982,4.501-2.585,5.348-3.29c1.637-1.049,2.623-1.455,3.593-2.465  c1.399-1.224,2.246-1.929,3.306-3.446c0.59-0.855,1.527-2.164,2.44-3.321c0.982-1.609,1.546-3.305,2.505-5.403  c1.147-3.103,0.969-2.954,1.187-6.25c0.206-0.955-0.022-4.165-0.195-4.71c-0.517-2.962-0.334-5.575-1.012-8.451  c-0.916-3.891-1.677-6.803-2.846-10.536c-1.099-4.203-4.327-8.097-6.75-10.878c-1.501-1.724-6.158-5.796-12.619-8.339  c-1.819-0.612-4.797-1.306-6.688-1.651c-4.037-0.422-4.694-0.151-8.559,0.132c-1.33,0.232-4.418,0.863-5.553,1.262  c-3.32,1.166-4.541,1.907-7.935,3.986c-1.58,0.917-2.771,1.619-4.386,3.133c-1.289,1.193-2.21,3.221-3.254,4.41  c-1.43,1.946-3.022,4.542-4.09,7.342c-1.158,2.785-1.531,6.706-1.355,9.229c0,1.923,0.523,5.443,0.731,6.213  c0.207,0.771,0.727,3.161,0.84,3.641c0.113,0.479,1.356,3.008,1.527,3.374c0.701,1.492,2.043,3.636,4.304,5.825  c1.668,1.822,4.893,3.61,7.307,4.303c2.165,1.188,5.816,1.39,7.836,1.394c0.994-0.06,3.533-0.216,4.858-0.534  c2.687-0.645,3.183-0.662,5.952-1.865c2.485-1.152,4.171-1.567,5.902-2.846c0,0,2.376-1.862,3.456-3.224  c0.57-0.719,1.547-4.145,1.373-6.267c-0.081-2.905,0.342-4.553-0.251-6.943c-0.593-2.39-1.605-5.16-2.702-6.867  c-1.111-1.729-3.5-3.414-6.219-4.755c-1.522-0.752-5.129-1.449-6.659-1.63c-2.907-0.345-5.338,0.974-6.814,2.483  c-1.28,1.463-3.81,4.502-2.802,7.644c0.912,2.843,2.013,5.872,6.277,5.647c2.926,0.609,6.311-0.275,7.438,0.244  c1.673,0.95,2.316,3.048,1.708,4.511c-0.424,2.821-3.126,3.159-6.01,3.374c-2.58,0.432-9.133-0.831-10.573-1.91  c-0.966-0.574-2.445-1.953-3.487-2.884c-0.749-0.67-1.597-2.164-2.176-3.237c-0.711-1.318-1.07-2.288-1.253-3.147  c-0.217-1.02-0.664-2.967-0.495-4.914c0.114-1.313,0.466-1.872,0.816-3.792c0.697-2.177,1.563-3.834,2.956-5.722  c1.815-1.842,4.12-4.035,6.37-5.054c1.984-1.048,5.46-1.434,8.605-1.25c2.551,0.244,5.569,0.555,7.564,1.224  c3.415,1.22,4.391,1.463,7.194,3.231c2.369,1.466,4.752,4.163,6.082,6.397c2.829,5.789,4.452,12.229,3.272,20.898  c-0.097,1.465-0.553,2.896-1.466,4.835c-0.843,1.79-2.322,3.967-4.541,5.606c-0.894,0.827-2.303,1.845-3.45,2.441  c-1.628,0.988-2.723,1.502-4.423,2.356c-1.492,0.701-3.231,1.503-5.499,2.133c-2.458,0.972-4.344,1.012-7.435,1.473  c-3.043,0.763-11.368,0.218-16.327-1.969c-3.385-1.423-7.183-3.932-10.07-6.99c-1.604-1.681-3.173-4.731-3.634-5.355  c-2.296-4.414-2.746-8.566-3.114-9.438c-0.5-1.185-0.749-3.842-1.084-5.66c-0.378-2.038-0.144-10.585,1.914-16.071  c1.16-2.184,1.839-4.131,2.624-5.154c1.411-2.007,2.093-3.261,3.293-4.684c1.809-2.194,3.126-3.984,4.888-5.246  c4.49-3.651,8.241-5.577,13.314-7.987c6.304-2.567,8.197-2.036,14.163-1.941c2.684,0.023,6.59,0.867,8.51,1.217  c3.566,0.475,5.609,1.334,8.021,2.007c2.579,0.72,4.07,1.869,6.186,3.148c1.742,1.125,3.792,2.666,5.146,3.917  c3.464,2.54,5.135,5.21,7.258,8.489c0.385,0.55,2.906,5.923,3.308,7.419c0.186,0.749,0.757,2.9,1.123,4.157  c0.471,1.994,0.699,3.76,1.224,6.01c0.47,2.318,1.27,6.695,1.617,10.786c0.583,3.509-0.351,10.672-0.902,12.871  c-1.227,4.1-3.373,9.104-7.611,13.923c-1.8,2.134-3.714,3.788-5.925,5.583c-1.691,1.411-3.142,2.232-5.754,3.792  c-3.548,2.117-6.248,3.469-11.221,5.413c-2.025,0.65-4.576,1.505-7.326,2.074c-5.327,0.492-10.801,0.964-16.776,0.254  c-5.976-0.711-11.962-2.395-15.498-3.481c-1.951-0.732-5.731-2.317-7.316-3.17c-1.031-0.524-4.488-2.888-5.075-3.457  c-2.369-1.466-7.671-6.452-11.094-11.1c-0.75-1.436-3.447-5.745-4.032-7.633c-1.555-3.193-2.639-7.055-3.276-8.705  c-0.672-3.851-1.807-6.331-2.25-10.197c0.051-0.91-0.183-3.051-0.389-4.236c0.301-2.646-0.101-5.14,0.424-8.02  c0.461-2.431,1.072-3.446,1.217-5.643c0.142-0.94,1.352-3.767,1.674-5.025c0.976-2.072,1.219-3.779,2.493-6.094  c1.836-3.608,3.755-7.759,6.704-11.385c0.842-1.124,3.23-3.821,4.044-4.756c1.924-1.923,3.053-2.227,5.235-4.157  c0.227-0.143,1.668-1.786,3.177-2.351c2.501-1.932,4.662-2.641,7.042-4.398c4.77-2.376,6.509-3.178,11.244-5.148  c2.736-0.976,6.552-1.516,7.926-2.049c2.614-0.162,5.267-0.996,8.017-0.83c3.087-0.029,6.198,0.191,9.3,0.473  C118.848,3.543,121.577,3.645,125.279,4.448L125.279,4.448z"
   id="path3816" />
<path
   style="fill:#ffffff;stroke-width:0.19950739"
   d="M 98.767734,114.86504 C 90.006995,113.82237 82.535637,111.84257 76.091207,108.8561 71.255314,106.61505 64.52888,101.11922 60.100328,95.790754 59.100842,94.588163 57.820402,92.688456 56.800032,90.89431 53.784683,85.592337 52.009717,80.990739 50.174514,73.717657 49.233445,69.98811 48.935658,68.412177 48.694282,65.884057 48.168604,60.37821 48.35546,56.172119 49.28639,52.55586 c 0.269146,-1.045514 0.61573,-2.529382 0.770188,-3.297486 0.272816,-1.356688 0.851235,-3.091057 2.514139,-7.538548 0.914572,-2.44605 3.619941,-7.899214 5.316504,-10.716378 1.353899,-2.248167 2.735215,-4.148375 4.581969,-6.303194 2.299036,-2.682544 3.105555,-3.460833 5.374899,-5.186768 1.207019,-0.91799 2.703596,-2.097422 3.325724,-2.62096 1.548682,-1.303255 7.455216,-4.927601 10.939054,-6.712382 2.128504,-1.0904399 8.140275,-3.7902419 9.775862,-4.3902032 1.504838,-0.5520006 6.705497,-1.711595 9.975371,-2.2242151 2.30841,-0.3618912 3.9016,-0.485808 6.28448,-0.4887994 3.65309,-0.00459 12.50011,0.634858 15.16256,1.0959176 7.86046,1.3612026 14.02179,3.1823272 19.15416,5.6614563 9.22855,4.4577398 13.58332,7.9727198 18.51155,14.9417088 3.16492,4.475499 4.6264,6.861885 7.32051,11.953343 2.95397,5.58254 3.64951,7.42048 4.69507,12.406415 0.47435,2.262015 1.05763,4.965649 1.29617,6.008075 0.7969,3.482514 0.21886,6.541505 -1.40021,7.409823 -1.00334,0.538093 -2.81977,0.494213 -4.08956,-0.0988 -2.23922,-1.045743 -2.92709,-2.18339 -3.97928,-6.58126 -0.3815,-1.594572 -1.01179,-3.723027 -1.40064,-4.729903 -0.38886,-1.006874 -1.11918,-3.189652 -1.62294,-4.850617 -1.07302,-3.537868 -1.7666,-5.112518 -3.57093,-8.107198 -2.69232,-4.468505 -8.35382,-11.828803 -11.23516,-14.606429 -3.53209,-3.404937 -6.66586,-5.405778 -11.60854,-7.411767 -4.93612,-2.003331 -8.9171,-3.032536 -15.16256,-3.919997 -10.30119,-1.463766 -15.12938,-1.532777 -21.423839,-0.306218 -4.484703,0.873904 -6.090087,1.427584 -10.364896,3.574741 -3.745923,1.881507 -6.687649,3.610092 -9.185745,5.397626 -6.438483,4.607111 -10.870701,9.013208 -13.792691,13.711394 -1.205546,1.938363 -4.744196,8.93232 -5.559613,10.988288 -0.593065,1.495334 -1.393032,5.145228 -1.826448,8.333268 -0.327702,2.410454 -0.384155,10.036243 -0.096,12.96798 0.208819,2.124557 1.820847,9.001564 2.911442,12.420381 0.752122,2.357768 2.659572,6.340353 4.319563,9.018861 4.305535,6.947276 11.061765,12.076335 19.581528,14.865495 6.849045,2.24222 10.132019,2.78795 17.680539,2.93908 6.84102,0.13696 10.9448,-0.37864 14.96305,-1.87996 6.03616,-2.25526 8.08781,-3.27913 14.10437,-7.038734 3.76584,-2.353187 7.73802,-7.083555 9.75986,-11.622771 1.96705,-4.416206 2.1203,-5.081613 2.14768,-9.325504 0.0131,-2.029988 -0.0884,-4.611115 -0.22558,-5.735838 -0.13716,-1.124723 -0.34537,-2.952137 -0.46269,-4.060919 -0.33671,-3.182137 -2.88625,-12.948438 -4.10152,-15.711293 -1.42822,-3.24698 -5.29171,-8.284596 -8.25413,-10.762583 -3.35667,-2.807758 -8.39958,-5.624391 -11.7265,-6.54964 -4.88623,-1.358909 -7.54051,-1.653524 -11.66425,-1.294686 -4.259,0.370611 -8.268646,1.393663 -11.223786,2.863733 -2.150777,1.069929 -6.87993,4.012802 -8.172128,5.08538 -0.775068,0.643338 -1.721234,1.725013 -2.446186,2.796529 -0.650224,0.961067 -1.67656,2.465622 -2.280746,3.343455 -2.098469,3.048907 -3.648159,6.419218 -4.270875,9.288415 -0.445514,2.052736 -0.589566,6.237172 -0.301916,8.770022 0.397817,3.502895 1.322837,7.242517 2.343084,9.472505 1.361075,2.97495 2.473744,4.56196 4.826501,6.884082 2.281945,2.252235 3.90178,3.263718 7.309655,4.564418 5.628599,2.148292 12.075847,1.77386 19.045927,-1.106117 4.23229,-1.748746 5.51419,-2.482566 7.41501,-4.244695 1.9266,-1.786018 2.33649,-2.521594 2.86835,-5.147398 0.26709,-1.318649 0.31631,-2.444981 0.24845,-5.685961 -0.0818,-3.908908 -0.10596,-4.107067 -0.735,-6.036651 -1.69371,-5.195531 -3.42615,-7.278177 -7.94652,-9.552882 -3.0043,-1.511806 -8.25762,-2.328866 -10.43845,-1.623514 -2.97099,0.960922 -5.708206,3.960665 -6.484501,7.106428 -0.298054,1.207803 -0.297797,1.407067 0.0034,2.589478 0.480333,1.885955 1.417284,3.748566 2.315428,4.602948 1.280163,1.217792 2.223483,1.410069 7.091113,1.445386 4.65711,0.03379 4.84245,0.07871 5.63837,1.366525 0.60645,0.981262 0.72672,2.109713 0.35948,3.372974 -0.52985,1.82261 -1.63077,2.562074 -4.38469,2.94511 -3.0245,0.42067 -6.83262,0.07942 -9.888471,-0.886112 -1.984226,-0.626942 -2.988838,-1.28681 -5.041158,-3.311238 -1.364804,-1.346254 -1.876325,-2.028479 -2.632935,-3.511589 -2.463498,-4.828973 -2.400908,-9.578258 0.194649,-14.770003 1.047603,-2.095464 2.599406,-3.903983 5.029522,-5.861565 2.917592,-2.350269 5.459343,-3.178554 9.796603,-3.19244 4.43992,-0.01422 7.7176,0.548175 11.48636,1.970848 6.97062,2.631351 10.62234,6.427737 12.97482,13.488832 1.14176,3.42707 1.50039,5.553235 1.62035,9.606529 0.23297,7.871159 -1.00688,11.821816 -4.92114,15.68067 -2.07413,2.044777 -4.21123,3.505592 -7.81628,5.342842 -4.60833,2.348545 -7.83379,3.375421 -12.95017,4.122888 -3.11459,0.45502 -4.07944,0.519104 -6.364479,0.422724 C 91.376922,94.046444 85.789434,91.929491 80.05562,87.1007 78.128476,85.477735 76.938899,84.038413 75.359445,81.418589 73.698455,78.66352 72.846566,76.564748 71.90777,72.91479 c -0.435367,-1.692662 -0.823375,-3.129115 -0.862243,-3.192118 -0.03887,-0.063 -0.270753,-1.325661 -0.515304,-2.805908 -0.389837,-2.359665 -0.430918,-3.158778 -0.333319,-6.48399 0.175206,-5.969257 0.926928,-9.528325 2.888714,-13.67678 1.716484,-3.629734 6.08199,-9.721428 8.645784,-12.064461 2.541493,-2.322651 6.79365,-5.12157 11.080511,-7.293583 6.65313,-3.370923 9.211297,-3.925978 16.529767,-3.586535 3.25136,0.150806 4.80716,0.33482 8.40281,0.993848 4.66185,0.854451 9.50704,2.197413 11.57511,3.208327 3.36328,1.644036 9.8469,6.560625 12.2673,9.302405 3.12192,3.536458 6.02686,9.053244 7.48245,14.209977 0.8408,2.978712 2.46372,11.060961 3.07006,15.289048 1.05749,7.374124 0.57491,14.463824 -1.33085,19.551724 -3.09881,8.273039 -8.95358,14.970866 -17.58989,20.122736 -5.73172,3.41917 -10.32954,5.47282 -15.71059,7.01725 -2.66415,0.76464 -3.54821,0.92156 -6.67797,1.18532 -3.17699,0.26774 -10.39629,0.37128 -12.062327,0.17299 z"
   id="path3825"
   inkscape:connector-curvature="0" /><path
   style="fill:#ffffff;stroke-width:0.19950739"
   d="m 3.7698482,157.75323 c 0.7044259,-1.3622 0.7551462,-2.66744 0.6924223,-17.81875 -0.047104,-11.37832 -0.1202402,-14.9956 -0.3119218,-15.42758 l -0.2503901,-0.56428 8.1309324,0.0857 c 8.865118,0.0935 9.531526,0.16508 12.619848,1.35601 2.361904,0.91081 3.956774,1.94903 5.802401,3.77723 1.428778,1.41528 1.86707,2.01025 2.645448,3.59113 1.454365,2.9538 1.785539,4.48265 1.79338,8.27904 0.006,2.92102 -0.03986,3.34462 -0.5404,4.98769 -1.811216,5.94554 -6.193998,10.10554 -12.330758,11.70398 -1.545649,0.40259 -2.238569,0.43786 -10.101685,0.51425 l -8.4422044,0.082 z m 16.3919748,-2.84458 c 4.959426,-1.27345 8.314378,-4.60627 9.475198,-9.41267 0.505582,-2.09337 0.564149,-6.35311 0.116604,-8.48067 -1.140017,-5.41945 -4.199786,-8.63742 -9.311308,-9.79273 -1.625365,-0.36737 -7.978315,-0.44707 -9.856849,-0.12365 l -0.997537,0.17174 -0.051228,13.89716 -0.051229,13.89717 1.348027,0.12776 c 0.741414,0.0703 1.482694,0.16334 1.647287,0.20681 0.164594,0.0435 1.601047,0.043 3.192118,-0.001 2.046118,-0.0566 3.360024,-0.20002 4.488917,-0.48989 z"
   id="path3827"
   inkscape:connector-curvature="0" /><path
   style="fill:#ffffff;stroke-width:0.19950739"
   d="m 38.69826,157.96421 c 0.480129,-1.25119 0.534331,-2.59584 0.477474,-11.845 -0.05487,-8.92519 -0.09456,-9.95056 -0.412466,-10.6544 -0.193466,-0.42833 -0.308701,-0.82184 -0.256076,-0.87446 0.05262,-0.0526 0.884252,-0.2182 1.848062,-0.36794 0.96381,-0.14974 1.954383,-0.31905 2.201273,-0.37626 0.444651,-0.10302 0.448892,-0.0832 0.448892,2.09438 0,1.33259 0.07857,2.19839 0.199507,2.19839 0.109729,0 0.199507,-0.1002 0.199507,-0.22266 0,-0.41561 1.38096,-2.10636 2.163179,-2.64844 1.345641,-0.93253 2.726441,-1.34346 4.531177,-1.34849 1.372037,-0.004 4.079044,0.49344 4.079044,0.7493 0,0.10215 -1.222332,3.16152 -1.29085,3.23087 -0.03252,0.0329 -0.630723,-0.13282 -1.329337,-0.36828 -0.843505,-0.28431 -1.752788,-0.4263 -2.706752,-0.42269 -3.134334,0.0119 -5.072476,1.74298 -5.647349,5.04415 -0.251762,1.44572 -0.175649,14.9417 0.08847,15.68759 l 0.158953,0.44889 h -2.438702 c -2.171449,0 -2.425038,-0.0356 -2.314009,-0.32495 z"
   id="path3829"
   inkscape:connector-curvature="0" /><path
   style="fill:#ffffff;stroke-width:0.19950739"
   d="m 63.920388,158.47679 c -5.168351,-0.7079 -9.146088,-4.31349 -10.254365,-9.29498 -0.474119,-2.13108 -0.312129,-5.18157 0.390413,-7.35201 1.246865,-3.85207 3.482521,-6.20537 7.02607,-7.39578 1.445253,-0.48552 1.770763,-0.52137 3.968479,-0.43711 1.808506,0.0693 2.662481,0.19639 3.49138,0.51942 3.239873,1.26261 5.374834,4.45349 5.721183,8.55079 l 0.12308,1.45603 H 65.87829 57.369951 v 1.85341 c 0,6.40626 3.981315,10.07625 10.105457,9.31524 1.984788,-0.24664 3.711435,-0.79006 5.236281,-1.64798 l 1.07696,-0.60593 -0.117833,0.48044 c -0.06481,0.26424 -0.229344,1.09216 -0.365634,1.83982 -0.286339,1.57079 -0.33103,1.60299 -3.200305,2.30543 -2.031255,0.49729 -4.410182,0.65623 -6.184489,0.41321 z m 6.61705,-17.12832 c 0,-1.18842 -1.094835,-3.13795 -2.212982,-3.94058 -1.1513,-0.82643 -3.109987,-1.3508 -4.451937,-1.19187 -2.570506,0.30444 -5.168177,2.70114 -5.814215,5.3644 l -0.133087,0.54864 h 6.30611 6.306111 z"
   id="path3831"
   inkscape:connector-curvature="0" /><path
   style="fill:#ffffff;stroke-width:0.19950739"
   d="m 81.695757,158.21587 c -1.884495,-0.50811 -3.856739,-2.10754 -4.501438,-3.65052 -1.130402,-2.70544 -0.449174,-6.34147 1.521701,-8.12204 1.58785,-1.43453 3.377873,-2.0634 7.468122,-2.62371 2.696637,-0.36941 4.22177,-0.86612 4.910529,-1.59927 0.370515,-0.39439 0.487193,-0.77134 0.539716,-1.74365 0.08924,-1.65199 -0.427341,-2.55894 -1.942815,-3.41097 -0.985629,-0.55414 -1.30071,-0.6237 -3.132217,-0.69149 -2.465218,-0.0913 -4.368897,0.28413 -6.415974,1.26516 l -1.42614,0.68346 v -1.67386 -1.67387 l 1.047414,-0.29916 c 4.015524,-1.14693 8.60154,-1.16012 11.06976,-0.0318 2.012072,0.91976 3.052629,2.02025 3.893498,4.11776 0.408361,1.01864 0.436504,1.49635 0.556855,9.45217 0.10317,6.82008 0.184088,8.53709 0.434851,9.22722 l 0.308094,0.8479 h -2.045714 -2.045713 l -0.138543,-1.40599 -0.138543,-1.406 -1.188105,1.09998 c -1.57665,1.4597 -2.983748,1.91705 -5.839524,1.89806 -1.113165,-0.007 -2.434281,-0.12411 -2.935814,-0.25934 z m 6.20104,-2.6987 c 1.907979,-0.7169 3.270005,-2.44286 3.76361,-4.76923 0.208924,-0.98466 0.326059,-5.82577 0.14096,-5.82577 -0.04585,0 -0.529024,0.22384 -1.073724,0.49743 -0.622753,0.31279 -1.906274,0.64875 -3.457894,0.9051 -3.306329,0.54625 -4.728173,1.03524 -5.829787,2.00492 -1.018712,0.89671 -1.383171,1.76604 -1.383171,3.29924 0,1.77814 0.999648,3.09994 3.084998,4.07919 1.078874,0.50663 3.116331,0.42484 4.755008,-0.19088 z"
   id="path3833"
   inkscape:connector-curvature="0" /><path
   style="fill:#ffffff;stroke-width:0.19950739"
   d="m 99.625821,157.54101 c 0.304297,-0.67165 0.338957,-1.75799 0.338957,-10.62377 0,-9.56638 -0.01326,-9.91204 -0.423349,-11.03884 -0.480977,-1.32158 -0.58134,-1.221 1.520641,-1.52391 0.82297,-0.1186 1.78808,-0.26829 2.1447,-0.33264 l 0.6484,-0.117 v 1.51851 c 0,0.83518 0.0433,1.51851 0.0962,1.51851 0.0529,0 0.52012,-0.40613 1.03817,-0.90252 1.48571,-1.42355 2.78913,-1.95037 5.07284,-2.05034 2.79914,-0.12254 4.97255,0.60075 6.45509,2.14818 0.31889,0.33285 0.6501,0.60517 0.73603,0.60517 0.0859,0 0.80981,-0.43604 1.60861,-0.96898 2.02016,-1.34778 2.92526,-1.66009 5.1434,-1.77472 3.86728,-0.19986 6.98374,1.25802 8.48565,3.9696 l 0.59179,1.06844 0.10272,8.87808 c 0.0896,7.74786 0.14549,8.97332 0.43871,9.62623 l 0.336,0.74815 h -2.40526 c -2.20758,0 -2.39425,-0.0286 -2.27144,-0.34869 0.44929,-1.17084 0.52878,-2.80224 0.47071,-9.66092 l -0.0631,-7.44728 -0.519,-1.09729 c -0.59885,-1.26615 -1.33672,-2.05921 -2.471,-2.65584 -1.02025,-0.53667 -3.79182,-0.59073 -4.91839,-0.0959 -1.20115,0.52755 -2.30599,1.67746 -2.80258,2.91691 -0.43857,1.09462 -0.45559,1.37718 -0.52009,8.63228 -0.0619,6.95772 -0.0391,7.58226 0.31415,8.62869 l 0.38084,1.12808 h -2.55245 -2.55245 l 0.33896,-0.74815 c 0.30059,-0.66347 0.33896,-1.64016 0.33896,-8.62869 0,-9.16484 -0.067,-9.6319 -1.59184,-11.09712 -1.94751,-1.87137 -5.94153,-1.5764 -7.78286,0.57479 -1.34263,1.56856 -1.37638,1.80369 -1.45262,10.12238 -0.0638,6.96129 -9.7e-4,8.22272 0.47068,9.45184 0.1113,0.29004 -0.15518,0.32495 -2.48007,0.32495 h -2.604757 z"
   id="path3835"
   inkscape:connector-curvature="0" /><path
   style="fill:#ffffff;stroke-width:0.19950739"
   d="m 145.76543,158.27153 c -5.74424,-1.12678 -9.33781,-5.26122 -9.88046,-11.36756 -0.53362,-6.00481 3.57654,-11.3955 9.66725,-12.67909 1.91808,-0.40423 6.04959,-0.26325 8.08005,0.27571 l 1.39655,0.37071 0.0581,1.52649 0.0581,1.52649 -0.89975,-0.39801 c -4.4307,-1.95991 -9.35834,-1.37678 -11.97128,1.41666 -1.66303,1.77792 -2.36589,3.88021 -2.36589,7.07653 0,4.01016 1.28275,6.80511 3.89945,8.49636 2.83314,1.83115 6.86029,1.79026 10.87207,-0.11039 0.79554,-0.3769 1.44643,-0.65159 1.44643,-0.61042 0,0.0412 -0.18756,0.88946 -0.4168,1.88508 l -0.41679,1.81023 -1.02964,0.29628 c -2.28847,0.65851 -6.41271,0.89387 -8.49745,0.48493 z"
   id="path3837"
   inkscape:connector-curvature="0" /><path
   style="fill:#ffffff;stroke-width:0.19950739"
   d="m 162.70985,158.11443 c -0.60351,-0.19404 -1.30723,-0.46595 -1.56383,-0.60426 -0.89711,-0.48356 -2.06268,-1.69783 -2.59144,-2.69973 -0.48433,-0.91768 -0.53315,-1.21117 -0.53315,-3.20477 0,-2.03258 0.0433,-2.28007 0.58631,-3.35257 1.33095,-2.62865 3.4629,-3.70569 8.77591,-4.4335 2.85554,-0.39118 4.30058,-0.89296 5.01432,-1.74119 0.47731,-0.56726 0.52021,-0.75279 0.45222,-1.95598 -0.14269,-2.52533 -1.6228,-3.61407 -5.09275,-3.74614 -2.39247,-0.0911 -4.32569,0.27205 -6.2213,1.16854 -0.69091,0.32675 -1.29303,0.59409 -1.33804,0.59409 -0.045,0 -0.0818,-0.71102 -0.0818,-1.58003 v -1.58002 l 0.94766,-0.30503 c 1.30608,-0.4204 2.81135,-0.66894 5.04021,-0.83222 4.43503,-0.32489 7.7976,1.02071 9.25859,3.70503 1.16631,2.1429 1.1884,2.34952 1.21518,11.36567 0.0177,5.95164 0.0909,8.40208 0.26054,8.71533 0.12977,0.23967 0.23594,0.48656 0.23594,0.54864 0,0.0621 -0.89778,0.11287 -1.99507,0.11287 h -1.99507 l -0.0199,-0.94766 c -0.0109,-0.52121 -0.0817,-1.16953 -0.15727,-1.4407 -0.13472,-0.48347 -0.14305,-0.48535 -0.42901,-0.0967 -0.68074,0.92519 -2.12349,1.91253 -3.34678,2.29037 -1.67652,0.51782 -4.84229,0.52766 -6.42144,0.02 z m 5.22725,-2.24394 c 2.20749,-0.46789 3.81037,-1.77531 4.57449,-3.73129 0.36852,-0.94334 0.45676,-1.64323 0.52932,-4.19846 0.0479,-1.68652 0.01,-3.02861 -0.0844,-2.98243 -1.53813,0.75315 -2.34828,1.00433 -4.36562,1.35352 -3.38925,0.58664 -4.84357,1.0605 -5.82004,1.89632 -2.12797,1.82146 -1.91233,5.27707 0.42811,6.8603 1.46599,0.9917 2.78778,1.21544 4.73818,0.80204 z"
   id="path3839"
   inkscape:connector-curvature="0" /><path
   style="fill:#ffffff;stroke-width:0.19950739"
   d="m 184.75542,158.37063 c -1.8856,-0.2688 -4.23489,-0.7225 -4.4593,-0.86119 -0.22617,-0.13978 -1.1337,-3.57039 -0.98376,-3.71874 0.031,-0.0307 0.85824,0.337 1.83832,0.81706 5.45666,2.67272 10.39251,1.57863 11.00093,-2.43849 0.23759,-1.56869 -0.65488,-3.1165 -2.37986,-4.1274 -0.46891,-0.2748 -1.99006,-0.99575 -3.38032,-1.6021 -5.12659,-2.23592 -6.58846,-3.68637 -6.57072,-6.51939 0.0192,-3.07477 2.06245,-5.24826 5.63298,-5.99216 1.40552,-0.29283 5.02804,-0.12825 6.93289,0.31498 l 1.44642,0.33657 v 1.50326 1.50325 l -0.51852,-0.33974 c -1.65171,-1.08225 -5.15847,-1.59607 -7.06979,-1.03589 -2.92581,0.85751 -3.89003,4.12048 -1.65461,5.59924 0.42012,0.27791 1.99748,1.03997 3.50523,1.69346 3.34762,1.45093 4.82429,2.32939 5.9275,3.52622 1.24656,1.35236 1.68786,2.47549 1.68199,4.28073 -0.0103,3.16994 -1.91462,5.5598 -5.25496,6.59483 -1.27252,0.3943 -4.40028,0.64998 -5.69442,0.4655 z"
   id="path3841"
   inkscape:connector-curvature="0" /><path
   style="fill:#ffffff;stroke-width:0.19950739"
   d="m 203.04481,158.12239 c -1.30766,-0.46861 -2.45384,-1.55478 -3.06462,-2.90416 -0.4561,-1.00765 -0.46189,-1.11596 -0.52083,-9.74742 l -0.0596,-8.72845 h -1.38682 -1.38682 v -1.09729 -1.09729 h 1.52679 1.52678 l -0.12443,-2.1749 c -0.0685,-1.1962 -0.25122,-2.54287 -0.40617,-2.99261 -0.15494,-0.44974 -0.26959,-0.81771 -0.25476,-0.81771 0.0148,0 0.96926,-0.26933 2.12095,-0.59852 1.15169,-0.32919 2.11662,-0.59852 2.14428,-0.59852 0.0277,0 0.0503,1.61601 0.0503,3.59113 v 3.59113 h 3.19212 3.19212 l 1.8e-4,1.24692 1.9e-4,1.24693 -3.19231,-0.0674 -3.1923,-0.0674 v 8.41656 c 0,9.29808 0.004,9.33025 1.25015,10.0792 0.71514,0.42981 2.68655,0.49176 4.01104,0.12605 0.83564,-0.23073 0.83243,-0.23983 0.50039,1.4135 -0.26419,1.31549 -0.27834,1.32246 -2.96847,1.46249 -1.53904,0.0801 -2.09511,0.0271 -2.95815,-0.28223 z"
   id="path3843"
   inkscape:connector-curvature="0" /></svg>