<?xml version="1.0" encoding="UTF-8" standalone="no"?>
<!-- Created with Inkscape (http://www.inkscape.org/) -->

<svg
   xmlns:dc="http://purl.org/dc/elements/1.1/"
   xmlns:cc="http://creativecommons.org/ns#"
   xmlns:rdf="http://www.w3.org/1999/02/22-rdf-syntax-ns#"
   xmlns:svg="http://www.w3.org/2000/svg"
   xmlns="http://www.w3.org/2000/svg"
   xmlns:sodipodi="http://sodipodi.sourceforge.net/DTD/sodipodi-0.dtd"
   xmlns:inkscape="http://www.inkscape.org/namespaces/inkscape"
   version="1.1"
   id="svg3931"
   width="933.33331"
   height="484"
   viewBox="0 0 933.33331 484"
   sodipodi:docname="md_logo.svg"
   inkscape:version="0.92.3 (2405546, 2018-03-11)">
  <metadata
     id="metadata3937">
    <rdf:RDF>
      <cc:Work
         rdf:about="">
        <dc:format>image/svg+xml</dc:format>
        <dc:type
           rdf:resource="http://purl.org/dc/dcmitype/StillImage" />
      </cc:Work>
    </rdf:RDF>
  </metadata>
  <defs
     id="defs3935" />
  <sodipodi:namedview
     pagecolor="#ffffff"
     bordercolor="#666666"
     borderopacity="1"
     objecttolerance="10"
     gridtolerance="10"
     guidetolerance="10"
     inkscape:pageopacity="0"
     inkscape:pageshadow="2"
     inkscape:window-width="1920"
     inkscape:window-height="1000"
     id="namedview3933"
     showgrid="false"
     inkscape:zoom="0.70710678"
     inkscape:cx="428.93511"
     inkscape:cy="174.07149"
     inkscape:window-x="0"
     inkscape:window-y="0"
     inkscape:window-maximized="1"
     inkscape:current-layer="svg3931" />
  <path
     style="fill:#ffffff;stroke-width:1.27157128"
     d="m 58.63177,371.98183 c 0,-0.83448 15.05927,-23.45167 36.79421,-55.26045 12.26071,-17.94337 37.2584,-54.95686 88.02465,-130.33605 26.56465,-39.44394 42.42988,-62.88116 62.73791,-92.680802 6.99364,-10.26235 14.71843,-21.78689 17.16621,-25.6101 2.44777,-3.82322 8.912,-13.39033 14.36494,-21.26026 5.45294,-7.86993 11.6581,-17.02695 13.78922,-20.34893 2.13113,-3.32198 4.48164,-6.03996 5.22335,-6.03996 0.94582,0 1.09613,27.81807 0.50332,93.142592 -1.09632,120.80554 -1.17126,193.03352 -0.20131,194.00347 1.58065,1.58065 4.73533,-2.08037 15.69037,-18.20873 6.17546,-9.09173 14.94755,-21.96639 19.49345,-28.61035 4.5459,-6.64396 17.3234,-25.52681 28.3944,-41.96185 26.3707,-39.14783 36.31,-53.79517 57.8113,-85.19528 9.8172,-14.33698 23.2429,-34.078122 29.8349,-43.869222 22.4196,-33.29977 44.1678,-64.84463 46.0174,-66.74608 1.6114,-1.65664 1.7998,20.11726 1.4923,172.510142 -0.1935,95.92334 -0.8286,174.88278 -1.4112,175.46542 -1.2193,1.21932 -435.72542,2.22296 -435.72542,1.00644 z"
     id="path3941"
     inkscape:connector-curvature="0" />
  <path
     style="fill:#ffffff;stroke-width:1.27157128"
     d="M 552.00139,196.42084 V 20.171158 l 48.0018,0.72913 c 26.401,0.40102 51.2921,0.74881 55.3134,0.77285 l 7.3115,0.0437 V 197.19367 372.67051 h -55.3133 -55.3134 z"
     id="path3943"
     inkscape:connector-curvature="0" />
  <path
     style="fill:#ffffff;stroke-width:1.27157128"
     d="m 685.51639,313.60307 v -59.06745 l 8.5831,0.005 c 13.4028,0.008 27.4039,-5.54679 37.4329,-14.85078 7.4308,-6.89355 13.2807,-15.93795 15.9145,-24.60501 1.1837,-3.89551 2.2669,-7.2631 2.4069,-7.48351 0.2966,-0.46687 96.96,-0.0554 107.3247,0.45688 3.8465,0.19011 10.93,0.3983 15.7411,0.46266 l 8.7474,0.11701 -0.8463,8.58804 c -1.0736,10.89533 -3.7414,23.66909 -7.3464,35.17566 -2.7401,8.74588 -13.2276,31.18626 -17.5801,37.61686 -1.1834,1.74841 -4.3826,6.59371 -7.1094,10.76734 -7.0811,10.83848 -31.1566,34.63641 -43.1049,42.60804 -11.7321,7.82735 -30.9142,17.58328 -41.9619,21.34161 -17.257,5.87068 -31.7154,7.93514 -55.5737,7.93514 h -22.6279 z"
     id="path3945"
     inkscape:connector-curvature="0" />
  <path
     style="fill:#ffffff;stroke-width:1.27157128"
     d="m 749.09499,187.04534 c 0,-2.90972 0.6648,-3.9265 2.861,-4.37584 3.0559,-0.62522 13.4581,-2.30539 28.9283,-4.6725 5.2452,-0.80258 11.8256,-1.89122 14.623,-2.41919 31.9356,-6.02732 70.1056,-12.40999 77.5659,-12.97031 l 5.0863,-0.38203 1.4522,8.26522 c 0.7987,4.54586 1.514,10.98319 1.5894,14.30517 l 0.1373,6.03998 h -66.1217 -66.1217 z"
     id="path3947"
     inkscape:connector-curvature="0" />
  <path
     style="fill:#ffffff;stroke-width:1.27157128"
     d="m 744.09399,171.44438 c -0.7181,-1.86051 -0.5926,-3.34705 0.3589,-4.25081 0.8047,-0.76438 8.9018,-4.71468 17.9936,-8.77844 9.0917,-4.06377 25.2442,-11.59232 35.8944,-16.73012 10.6501,-5.1378 19.6863,-9.34145 20.0802,-9.34145 0.8525,0 13.4056,-5.8159 29.1305,-13.49633 6.2447,-3.05006 11.4799,-5.40964 11.6336,-5.24351 1.7183,1.8562 10.6258,20.35757 11.2836,23.43627 0.8409,3.93624 0.6993,4.104 -4.6219,5.47571 -3.0192,0.77828 -7.2061,1.94696 -9.3041,2.59708 -2.0981,0.65011 -8.1063,2.28937 -13.3515,3.64279 -32.3269,8.34127 -45.1477,11.77497 -55.3134,14.81417 -15.8474,4.73782 -38.6773,10.73567 -40.8637,10.73567 -0.9987,0 -2.3128,-1.28748 -2.9202,-2.86103 z"
     id="path3949"
     inkscape:connector-curvature="0" />
  <path
     style="fill:#ffffff;stroke-width:1.27157128"
     d="m 734.66899,157.99274 c -1.1575,-1.27895 -2.1044,-2.59997 -2.1044,-2.93559 0,-0.71317 22.1542,-20.47013 39.1584,-34.92115 20.6062,-17.51217 26.4248,-22.538832 36.673,-31.681772 5.4998,-4.9066 12.2225,-10.61234 14.9393,-12.67941 l 4.9397,-3.7583 6.2038,6.74688 c 3.4121,3.71078 7.747,8.77013 9.6331,11.24298 l 3.4294,4.4961 -2.729,2.07222 c -1.501,1.13971 -5.1517,3.502732 -8.1126,5.251142 -2.961,1.74841 -8.0046,4.93078 -11.2081,7.07192 -3.2034,2.14115 -11.2443,6.97752 -17.8686,10.7475 -6.6243,3.76998 -18.1513,10.69583 -25.6156,15.39079 -15.8726,9.98373 -42.5887,25.28208 -44.151,25.28208 -0.5956,0 -2.03,-1.04643 -3.1874,-2.32539 z"
     id="path3951"
     inkscape:connector-curvature="0" />
  <path
     style="fill:#ffffff;stroke-width:1.27157128"
     d="m 720.52299,147.15194 c -2.2427,-1.63992 -2.1211,-2.10984 2.5511,-9.85467 2.6983,-4.47295 10.0861,-15.9472 16.4172,-25.49834 6.3311,-9.55113 13.2277,-20.104742 15.3258,-23.452452 2.098,-3.34772 4.673,-7.35149 5.722,-8.89727 1.0491,-1.54579 6.485,-9.7613 12.0799,-18.25668 5.595,-8.49539 10.8634,-16.4182 11.7078,-17.60624 1.4101,-1.98424 2.1865,-1.80703 9.5367,2.17667 11.299,6.12385 16.4313,10.22318 15.2983,12.21917 -1.1357,2.00074 -18.8932,21.54884 -32.3056,35.56327 -5.3626,5.60329 -11.5568,12.466352 -13.765,15.251252 -2.2081,2.7849 -6.6897,7.68774 -9.9591,10.89522 -3.2695,3.20748 -10.7324,11.0856 -16.5843,17.50695 -5.8519,6.42134 -11.3215,11.67517 -12.1548,11.67517 -0.8332,0 -2.5747,-0.77492 -3.87,-1.72205 z"
     id="path3953"
     inkscape:connector-curvature="0" />
  <path
     style="fill:#ffffff;stroke-width:1.27157128"
     d="m 704.38689,141.23295 c -2.3375,-1.39317 -2.2732,-1.74504 4.4152,-24.14826 1.7747,-5.94459 4.4208,-14.8138 5.8801,-19.709352 1.4594,-4.89555 4.037,-13.47866 5.728,-19.07357 1.6911,-5.59491 4.5601,-15.60854 6.3755,-22.2525 5.5548,-20.3283 8.7748,-30.64747 9.7518,-31.25129 1.5414,-0.95265 29.0879,6.44967 29.0879,7.81653 0,0.28476 -12.355,24.98606 -27.4556,54.89178 -18.1563,35.957412 -28.1697,54.477432 -29.564,54.679272 -1.1597,0.16785 -3.0582,-0.26081 -4.2189,-0.95261 z"
     id="path3955"
     inkscape:connector-curvature="0" />
  <path
     style="fill:#ffffff;stroke-width:1.27157128"
     d="m 686.33759,139.09873 c -0.9589,-0.95885 -0.8575,-91.688212 0.1201,-107.527202 l 0.6083,-9.85468 12.8946,0.0195 c 7.092,0.0107 13.5914,0.46221 14.443,1.00333 1.1884,0.75514 0.6919,5.84972 -2.1357,21.91513 -3.3559,19.06694 -6.2549,33.85913 -8.9615,45.72692 -0.94,4.12148 -2.9802,14.072572 -4.4319,21.616712 -2.9135,15.14065 -4.9184,23.87332 -5.9116,25.74933 -1.178,2.22496 -4.9767,2.99958 -6.6253,1.35099 z"
     id="path3957"
     inkscape:connector-curvature="0" />
  <path
     style="fill:#ffffff;stroke-width:1.27157128"
     d="m 3.9542102,477.50522 c 0,-0.4388 8.4910198,-13.76334 18.8689298,-29.61008 10.37792,-15.84674 20.09568,-30.86673 21.59502,-33.37775 4.28446,-7.17536 10.59912,-9.33475 27.43589,-9.3821 l 14.11651,-0.0397 0.39465,4.76839 c 0.48016,5.80156 2.35561,6.04643 7.24248,0.94563 5.09694,-5.32005 10.0279,-6.33458 30.8279,-6.34272 l 18.11989,-0.007 v 36.87557 36.87556 H 131.11134 119.6672 v -28.5353 c 0,-18.67498 -0.46437,-28.82231 -1.34385,-29.36585 -4.16896,-2.57657 -7.76688,1.0852 -21.21223,21.58869 -7.52604,11.47684 -15.80476,24.34221 -18.39715,28.58972 l -4.71345,7.72274 H 61.71941 49.43829 l 2.31649,-3.49682 c 1.27407,-1.92325 7.27421,-11.22161 13.33364,-20.66303 6.05942,-9.44142 13.13576,-20.29028 15.72518,-24.10859 4.45565,-6.5702 4.58374,-7.03495 2.38936,-8.66917 -2.1725,-1.61793 -12.872,-1.27704 -17.66669,0.56285 -0.87879,0.33723 -6.3681,8.03561 -12.19847,17.10751 -5.83037,9.07191 -13.82035,21.47523 -17.75551,27.56292 l -7.15484,11.06855 -12.23662,0.36394 c -6.7301398,0.20016 -12.2366198,0.005 -12.2366198,-0.43388 z"
     id="path3959"
     inkscape:connector-curvature="0" />
  <path
     style="fill:#ffffff;stroke-width:1.27157128"
     d="m 153.99962,454.01024 c 0,-26.82986 0.27012,-28.06065 8.50287,-38.74207 8.15468,-10.58015 9.07868,-10.80411 44.58523,-10.80638 l 30.8356,-0.002 v 6.35786 6.35785 h -22.19266 c -13.05949,0 -23.39472,0.55865 -25.11353,1.35746 -3.11375,1.4471 -11.18608,11.29773 -11.18608,13.65031 0,2.38162 7.36501,2.98068 31.49012,2.56144 12.75475,-0.22165 23.18977,0.0661 23.18894,0.63946 -8.2e-4,0.57336 -1.74561,3.57744 -3.8773,6.67575 l -3.8758,5.63328 -21.87352,0.0195 c -12.03043,0.0107 -22.60905,0.48617 -23.50803,1.05657 -2.04532,1.29774 -3.39407,9.16332 -2.31115,13.47801 l 0.81519,3.24795 h 29.22191 29.22191 v 6.35786 6.35785 h -41.96185 -41.96185 z"
     id="path3961"
     inkscape:connector-curvature="0" />
  <path
     style="fill:#ffffff;stroke-width:1.27157128"
     d="m 254.91671,476.72373 c -4.65003,-2.2516 -5.54924,-6.55998 -5.54924,-26.58804 0,-21.09064 0.53734,-23.30613 8.25966,-34.05504 7.80174,-10.85947 8.06022,-10.92604 44.19265,-11.38354 l 31.47141,-0.39848 v 7.07423 7.07423 H 309.8711 c -12.88104,0 -24.39439,0.37389 -25.58523,0.83085 -1.19084,0.45696 -4.38478,4.26502 -7.09764,8.46236 -4.9165,7.60676 -4.93248,7.67399 -4.93248,20.74112 0,11.6597 0.27202,13.2552 2.45955,14.42593 1.35932,0.72749 10.41961,1.31631 20.25431,1.31631 20.67326,0 22.17582,-0.65402 21.53872,-9.37519 l -0.38337,-5.24788 -9.19521,-0.37312 -9.19521,-0.37312 4.60684,-6.93842 4.60685,-6.93841 h 15.71456 15.7147 l -0.1268,16.21254 c -0.1559,19.94298 -0.6693,21.9737 -6.2677,24.79366 -3.8963,1.96257 -8.5143,2.21341 -39.3821,2.13919 -21.30532,-0.0512 -36.0294,-0.59792 -37.68418,-1.39918 z"
     id="path3963"
     inkscape:connector-curvature="0" />
  <path
     style="fill:#ffffff;stroke-width:1.27157128"
     d="m 352.36469,440.7491 v -37.56086 l 20.0273,0.0185 c 19.9209,0.0184 28.2887,1.39828 33.265,5.48548 1.7603,1.4458 41.4305,60.91231 44.4675,66.65768 l 1.5123,2.86103 h -13.3042 -13.3042 l -4.5548,-7.4981 c -2.5052,-4.12395 -5.4545,-7.8433 -6.5539,-8.26521 -1.0995,-0.42191 -7.6798,-0.76711 -14.6229,-0.76711 h -12.6238 l -3.4847,-5.03803 c -1.9166,-2.77091 -4.4661,-5.05974 -5.6655,-5.08628 -1.8984,-0.042 -2.2277,1.63977 -2.5432,12.98534 l -0.3624,13.03361 -11.1262,0.3674 -11.1263,0.3674 z m 50.8629,6.2076 c 0,-2.74805 -14.9271,-25.58986 -18.2388,-27.90947 -3.5068,-2.45624 -7.9946,-2.38633 -8.9639,0.13965 -1.0498,2.73558 -0.9839,27.87051 0.076,28.93021 0.4662,0.46624 6.7605,0.84772 13.9872,0.84772 11.1249,0 13.1396,-0.30791 13.1396,-2.00811 z"
     id="path3965"
     inkscape:connector-curvature="0" />
  <path
     style="fill:#ffffff"
     d="m 491.75519,440.65393 v -37.5348 l 34.25,0.0307 c 44.6846,0.0401 42.8485,-0.60086 54.75,19.1121 1.375,2.27749 2.9639,4.63955 3.531,5.24903 5.4741,5.88383 7.2037,14.88133 3.8933,20.25301 -6.619,10.74066 -16.6492,25.25786 -18.9001,27.35514 l -2.6832,2.5 -37.4205,0.28479 -37.4205,0.28478 z m 54.6,23.95668 c 4.5945,-0.77931 12.269,-10.25131 17.3901,-21.46312 1.3601,-2.97789 0.7526,-4.51862 -5.4593,-13.84581 -6.606,-9.91877 -7.7086,-11.08487 -11.5345,-12.19902 -3.569,-1.03935 -30.7407,-0.24595 -31.4088,0.91713 -0.1893,0.32963 -0.6665,10.34435 -1.0603,22.2549 -0.903,27.30739 -2.0922,25.43849 15.9728,25.10309 7.15,-0.13275 14.395,-0.47798 16.1,-0.76717 z"
     id="path3996"
     inkscape:connector-curvature="0" />
  <path
     style="fill:#ffffff"
     d="m 599.75519,440.61913 v -37.5 h 29.7899 c 37.3561,0 43.5969,1.19929 49.4358,9.5 6.9216,9.83996 8.122,14.36649 5.1141,19.28519 -2.9407,4.80892 -6.8187,10.70063 -7.3817,11.21481 -0.3011,0.275 -1.5482,2.22739 -2.7713,4.33863 l -2.224,3.83864 3.731,6.16136 c 4.3557,7.193 7.9157,12.72312 9.1568,14.22436 1.1259,1.36181 3.1494,5.13417 3.1494,5.87127 0,0.31116 -5.9625,0.55725 -13.25,0.54686 l -13.25,-0.0189 -3,-5.06477 c -1.65,-2.78561 -3.5625,-5.66997 -4.25,-6.40968 -0.6875,-0.7397 -1.25,-1.61424 -1.25,-1.94342 0,-0.32916 -3.15,-5.39371 -7,-11.25455 -3.85,-5.86083 -7,-11.02364 -7,-11.47293 0,-0.44928 2.2001,-0.81688 4.8892,-0.81688 5.6676,0 7.2974,-1.1382 12.5146,-8.73974 6.1752,-8.99746 4.1933,-14.42928 -5.6986,-15.61757 -9.9875,-1.19979 -26.3648,-0.75776 -27.6122,0.74526 -0.8264,0.99571 -1.0729,9.75644 -0.8725,31.00057 l 0.2795,29.61264 -11.25,-5.8e-4 -11.25,-5.8e-4 z"
     id="path3998"
     inkscape:connector-curvature="0" />
  <path
     style="fill:#ffffff"
     d="m 700.75519,440.61913 v -37.5 h 14.5 14.5 v 37.5 37.5 h -14.5 -14.5 z"
     id="path4000"
     inkscape:connector-curvature="0" />
  <path
     style="fill:#ffffff"
     d="m 765.14119,473.86913 c -1.5873,-2.3375 -3.2277,-4.7 -3.6453,-5.25 -1.5081,-1.98629 -13.7407,-20.83658 -13.7407,-21.17431 0,-0.19041 -1.6875,-2.70407 -3.75,-5.58594 l -3.75,-5.23975 -0.3159,-16.75 -0.3158,-16.75 h 11.5658 11.5659 v 12.25796 c 0,13.39709 0.9241,16.30532 8.4019,26.44149 1.7039,2.30969 4.2231,6.08602 5.5981,8.39184 1.375,2.30582 3.0041,4.71308 3.6203,5.34947 0.6162,0.63637 1.8652,2.59753 2.7757,4.35815 1.1675,2.25767 2.3654,3.2011 4.0647,3.2011 2.362,0 6.3596,-4.64713 23.4044,-27.20709 l 4.3119,-5.7071 -0.1151,-13.5429 -0.1151,-13.54291 h 12.0266 12.0266 v 14.47977 c 0,15.34575 -1.0171,20.14382 -5.4234,25.58427 -1.1421,1.41022 -2.9766,3.85105 -4.0766,5.42406 -1.1,1.57301 -2.9093,3.79419 -4.0206,4.93595 -1.1113,1.14177 -6.0613,7.13231 -11,13.31231 l -8.9794,11.23638 -18.614,0.0136 -18.614,0.0136 z"
     id="path4002"
     inkscape:connector-curvature="0" />
  <path
     style="fill:#ffffff"
     d="m 848.75519,453.59028 c 0,-27.00043 -0.1074,-26.43469 6.9552,-36.63912 4.8276,-6.9753 6.3167,-8.5282 10.5448,-10.99667 3.9235,-2.2907 4.5926,-2.34111 35,-2.63669 l 31,-0.30134 v 7.00247 7.00248 l -23.6863,0.29887 -23.6863,0.29886 -2.8137,2.70192 c -1.5476,1.48606 -3.9247,4.74008 -5.2826,7.23117 -1.9931,3.65667 -2.2247,4.77371 -1.2016,5.79809 0.9441,0.94534 8.0098,1.34444 27.7143,1.56542 l 26.4471,0.2966 -2.2454,3.2034 c -1.2351,1.76187 -2.5157,3.4284 -2.8458,3.7034 -0.3302,0.275 -1.1335,1.5125 -1.7852,2.75 -1.1739,2.22908 -1.3891,2.25 -23.1497,2.25 -26.0745,0 -25.9648,-0.0417 -25.9648,9.87756 0,3.67739 0.499,6.29169 1.333,6.98389 0.8857,0.735 10.6612,1.19565 29.1254,1.37244 l 27.7923,0.26611 -2e-4,6 -2e-4,6 -41.6251,0.26098 -41.6252,0.26097 z"
     id="path4004"
     inkscape:connector-curvature="0" />
</svg>
